<svg width="1926" height="176" viewBox="0 0 1926 176" fill="none" xmlns="http://www.w3.org/2000/svg">
<path d="M47.984 41.384V69.214H102.434V105.272H47.984V136.006H109.694V174H0.552V3.38999H109.694V41.384H47.984ZM236.224 174L203.07 125.842L174.756 174H120.79L176.208 86.638L118.854 3.38999H174.756L206.942 50.338L234.53 3.38999H288.496L233.804 89.3L292.126 174H236.224ZM439.566 60.26C439.566 70.5853 437.146 80.0233 432.306 88.574C427.628 96.9633 420.448 103.739 410.768 108.902C401.25 113.903 389.553 116.404 375.678 116.404H352.204V174H304.772V3.38999H375.678C389.392 3.38999 401.008 5.80999 410.526 10.65C420.206 15.49 427.466 22.1853 432.306 30.736C437.146 39.2867 439.566 49.128 439.566 60.26ZM371.08 78.652C384.471 78.652 391.166 72.5213 391.166 60.26C391.166 47.8373 384.471 41.626 371.08 41.626H352.204V78.652H371.08ZM502.424 137.7H555.422V174H454.992V3.38999H502.424V137.7ZM652.031 175.694C636.059 175.694 621.378 171.983 607.987 164.562C594.596 156.979 583.948 146.573 576.043 133.344C568.299 119.953 564.427 104.869 564.427 88.09C564.427 71.3113 568.299 56.3073 576.043 43.078C583.948 29.6873 594.596 19.2813 607.987 11.86C621.378 4.43866 636.059 0.727995 652.031 0.727995C668.164 0.727995 682.846 4.43866 696.075 11.86C709.466 19.2813 720.033 29.6873 727.777 43.078C735.521 56.3073 739.393 71.3113 739.393 88.09C739.393 104.869 735.521 119.953 727.777 133.344C720.033 146.573 709.466 156.979 696.075 164.562C682.684 171.983 668.003 175.694 652.031 175.694ZM652.031 131.65C664.131 131.65 673.65 127.697 680.587 119.792C687.686 111.887 691.235 101.319 691.235 88.09C691.235 74.538 687.686 63.89 680.587 56.146C673.65 48.2407 664.131 44.288 652.031 44.288C639.77 44.288 630.17 48.2407 623.233 56.146C616.296 63.89 612.827 74.538 612.827 88.09C612.827 101.481 616.296 112.129 623.233 120.034C630.17 127.778 639.77 131.65 652.031 131.65ZM843.48 174L809.6 111.08H804.518V174H757.086V3.38999H831.864C845.577 3.38999 857.193 5.80999 866.712 10.65C876.23 15.3287 883.41 21.8627 888.25 30.252C893.09 38.48 895.51 47.7567 895.51 58.082C895.51 69.698 892.283 79.9427 885.83 88.816C879.538 97.528 870.261 103.739 858 107.45L896.478 174H843.48ZM804.518 78.652H827.992C834.445 78.652 839.285 77.1193 842.512 74.054C845.738 70.9887 847.352 66.552 847.352 60.744C847.352 55.2587 845.658 50.9833 842.27 47.918C839.043 44.6913 834.284 43.078 827.992 43.078H804.518V78.652ZM960.882 41.384V69.214H1015.33V105.272H960.882V136.006H1022.59V174H913.45V3.38999H1022.59V41.384H960.882ZM1193.99 59.534C1191.25 55.0167 1187.46 51.548 1182.62 49.128C1177.94 46.708 1172.37 45.498 1165.92 45.498C1153.98 45.498 1144.54 49.37 1137.6 57.114C1130.83 64.858 1127.44 75.264 1127.44 88.332C1127.44 103.013 1131.07 114.226 1138.33 121.97C1145.75 129.553 1156.48 133.344 1170.52 133.344C1187.13 133.344 1198.99 125.842 1206.09 110.838H1158.42V76.716H1246.99V122.696C1243.28 131.731 1237.79 140.201 1230.53 148.106C1223.43 156.011 1214.4 162.545 1203.43 167.708C1192.46 172.709 1179.95 175.21 1165.92 175.21C1148.82 175.21 1133.65 171.58 1120.42 164.32C1107.35 156.899 1097.19 146.654 1089.93 133.586C1082.83 120.357 1079.28 105.272 1079.28 88.332C1079.28 71.5533 1082.83 56.63 1089.93 43.562C1097.19 30.3327 1107.35 20.088 1120.42 12.828C1133.49 5.40666 1148.57 1.696 1165.68 1.696C1187.13 1.696 1204.88 6.85866 1218.92 17.184C1232.95 27.5093 1241.66 41.626 1245.05 59.534H1193.99ZM1351.01 174L1317.13 111.08H1312.05V174H1264.61V3.38999H1339.39C1353.11 3.38999 1364.72 5.80999 1374.24 10.65C1383.76 15.3287 1390.94 21.8627 1395.78 30.252C1400.62 38.48 1403.04 47.7567 1403.04 58.082C1403.04 69.698 1399.81 79.9427 1393.36 88.816C1387.07 97.528 1377.79 103.739 1365.53 107.45L1404.01 174H1351.01ZM1312.05 78.652H1335.52C1341.97 78.652 1346.81 77.1193 1350.04 74.054C1353.27 70.9887 1354.88 66.552 1354.88 60.744C1354.88 55.2587 1353.19 50.9833 1349.8 47.918C1346.57 44.6913 1341.81 43.078 1335.52 43.078H1312.05V78.652ZM1468.41 41.384V69.214H1522.86V105.272H1468.41V136.006H1530.12V174H1420.98V3.38999H1530.12V41.384H1468.41ZM1614.3 175.694C1594.46 175.694 1578.16 171.015 1565.42 161.658C1552.67 152.139 1545.81 138.587 1544.85 121.002H1595.42C1595.91 126.971 1597.68 131.327 1600.75 134.07C1603.81 136.813 1607.77 138.184 1612.61 138.184C1616.96 138.184 1620.51 137.135 1623.25 135.038C1626.16 132.779 1627.61 129.714 1627.61 125.842C1627.61 120.841 1625.27 116.969 1620.59 114.226C1615.91 111.483 1608.33 108.418 1597.84 105.03C1586.71 101.319 1577.68 97.77 1570.74 94.382C1563.96 90.8327 1558 85.7507 1552.83 79.136C1547.83 72.36 1545.33 63.5673 1545.33 52.758C1545.33 41.7873 1548.07 32.43 1553.56 24.686C1559.04 16.7807 1566.63 10.8113 1576.31 6.77799C1585.99 2.74466 1596.96 0.727995 1609.22 0.727995C1629.06 0.727995 1644.87 5.40666 1656.65 14.764C1668.59 23.96 1674.96 36.9473 1675.77 53.726H1624.22C1624.06 48.5633 1622.45 44.6913 1619.38 42.11C1616.48 39.5287 1612.69 38.238 1608.01 38.238C1604.46 38.238 1601.56 39.2867 1599.3 41.384C1597.04 43.4813 1595.91 46.466 1595.91 50.338C1595.91 53.5647 1597.12 56.388 1599.54 58.808C1602.12 61.0667 1605.27 63.0833 1608.98 64.858C1612.69 66.4713 1618.17 68.5687 1625.43 71.15C1636.24 74.8607 1645.12 78.5713 1652.05 82.282C1659.15 85.8313 1665.2 90.9133 1670.2 97.528C1675.37 103.981 1677.95 112.209 1677.95 122.212C1677.95 132.376 1675.37 141.491 1670.2 149.558C1665.2 157.625 1657.86 163.997 1648.18 168.676C1638.66 173.355 1627.37 175.694 1614.3 175.694ZM1743.8 3.38999V174H1696.37V3.38999H1743.8ZM1868.09 174L1814.61 99.222V174H1767.18V3.38999H1814.61V76.958L1867.61 3.38999H1922.3L1859.62 86.154L1925.45 174H1868.09Z" fill="url(#paint0_linear_210_2)"/>
<defs>
<linearGradient id="paint0_linear_210_2" x1="959" y1="58.1157" x2="958.889" y2="174" gradientUnits="userSpaceOnUse">
<stop stop-color="#00C3E6"/>
<stop offset="1" stop-color="#306CB6"/>
</linearGradient>
</defs>
</svg>
