<svg width="1884" height="176" viewBox="0 0 1884 176" fill="none" xmlns="http://www.w3.org/2000/svg">
<path d="M135.346 60.26C135.346 70.5853 132.926 80.0233 128.086 88.574C123.407 96.9633 116.228 103.739 106.548 108.902C97.0293 113.903 85.3327 116.404 71.458 116.404H47.984V174H0.552V3.38999H71.458C85.1713 3.38999 96.7873 5.80999 106.306 10.65C115.986 15.49 123.246 22.1853 128.086 30.736C132.926 39.2867 135.346 49.128 135.346 60.26ZM66.86 78.652C80.2507 78.652 86.946 72.5213 86.946 60.26C86.946 47.8373 80.2507 41.626 66.86 41.626H47.984V78.652H66.86ZM232.568 175.694C216.596 175.694 201.914 171.983 188.524 164.562C175.133 156.979 164.485 146.573 156.58 133.344C148.836 119.953 144.964 104.869 144.964 88.09C144.964 71.3113 148.836 56.3073 156.58 43.078C164.485 29.6873 175.133 19.2813 188.524 11.86C201.914 4.43866 216.596 0.727995 232.568 0.727995C248.701 0.727995 263.382 4.43866 276.612 11.86C290.002 19.2813 300.57 29.6873 308.314 43.078C316.058 56.3073 319.93 71.3113 319.93 88.09C319.93 104.869 316.058 119.953 308.314 133.344C300.57 146.573 290.002 156.979 276.612 164.562C263.221 171.983 248.54 175.694 232.568 175.694ZM232.568 131.65C244.668 131.65 254.186 127.697 261.124 119.792C268.222 111.887 271.772 101.319 271.772 88.09C271.772 74.538 268.222 63.89 261.124 56.146C254.186 48.2407 244.668 44.288 232.568 44.288C220.306 44.288 210.707 48.2407 203.77 56.146C196.832 63.89 193.364 74.538 193.364 88.09C193.364 101.481 196.832 112.129 203.77 120.034C210.707 127.778 220.306 131.65 232.568 131.65ZM472.416 60.26C472.416 70.5853 469.996 80.0233 465.156 88.574C460.477 96.9633 453.298 103.739 443.618 108.902C434.099 113.903 422.403 116.404 408.528 116.404H385.054V174H337.622V3.38999H408.528C422.241 3.38999 433.857 5.80999 443.376 10.65C453.056 15.49 460.316 22.1853 465.156 30.736C469.996 39.2867 472.416 49.128 472.416 60.26ZM403.93 78.652C417.321 78.652 424.016 72.5213 424.016 60.26C424.016 47.8373 417.321 41.626 403.93 41.626H385.054V78.652H403.93ZM534.306 3.38999V102.368C534.306 111.564 536.403 118.663 540.598 123.664C544.954 128.665 551.488 131.166 560.2 131.166C568.912 131.166 575.446 128.665 579.802 123.664C584.319 118.501 586.578 111.403 586.578 102.368V3.38999H634.01V102.368C634.01 118.017 630.702 131.408 624.088 142.54C617.473 153.511 608.438 161.819 596.984 167.466C585.69 172.951 573.106 175.694 559.232 175.694C545.357 175.694 532.934 172.951 521.964 167.466C511.154 161.819 502.604 153.511 496.312 142.54C490.181 131.569 487.116 118.179 487.116 102.368V3.38999H534.306ZM703.927 137.7H756.925V174H656.495V3.38999H703.927V137.7ZM879.67 146.17H819.17L809.974 174H760.122L822.316 3.38999H877.008L938.96 174H888.866L879.67 146.17ZM867.812 109.87L849.42 54.694L831.27 109.87H867.812ZM1037.18 174L1003.3 111.08H998.222V174H950.79V3.38999H1025.57C1039.28 3.38999 1050.9 5.80999 1060.42 10.65C1069.93 15.3287 1077.11 21.8627 1081.95 30.252C1086.79 38.48 1089.21 47.7567 1089.21 58.082C1089.21 69.698 1085.99 79.9427 1079.53 88.816C1073.24 97.528 1063.96 103.739 1051.7 107.45L1090.18 174H1037.18ZM998.222 78.652H1021.7C1028.15 78.652 1032.99 77.1193 1036.22 74.054C1039.44 70.9887 1041.06 66.552 1041.06 60.744C1041.06 55.2587 1039.36 50.9833 1035.97 47.918C1032.75 44.6913 1027.99 43.078 1021.7 43.078H998.222V78.652ZM1284.64 60.26C1284.64 70.5853 1282.22 80.0233 1277.38 88.574C1272.7 96.9633 1265.52 103.739 1255.84 108.902C1246.32 113.903 1234.62 116.404 1220.75 116.404H1197.28V174H1149.84V3.38999H1220.75C1234.46 3.38999 1246.08 5.80999 1255.6 10.65C1265.28 15.49 1272.54 22.1853 1277.38 30.736C1282.22 39.2867 1284.64 49.128 1284.64 60.26ZM1216.15 78.652C1229.54 78.652 1236.24 72.5213 1236.24 60.26C1236.24 47.8373 1229.54 41.626 1216.15 41.626H1197.28V78.652H1216.15ZM1347.5 137.7H1400.49V174H1300.06V3.38999H1347.5V137.7ZM1523.24 146.17H1462.74L1453.54 174H1403.69L1465.88 3.38999H1520.58L1582.53 174H1532.43L1523.24 146.17ZM1511.38 109.87L1492.99 54.694L1474.84 109.87H1511.38ZM1588.55 88.332C1588.55 71.5533 1592.02 56.63 1598.96 43.562C1606.05 30.3327 1616.06 20.088 1628.96 12.828C1641.87 5.40666 1656.71 1.696 1673.49 1.696C1694.79 1.696 1712.7 7.42333 1727.22 18.878C1741.74 30.1713 1751.09 45.5787 1755.29 65.1H1704.23C1701.16 58.6467 1696.89 53.726 1691.4 50.338C1686.08 46.95 1679.86 45.256 1672.77 45.256C1661.8 45.256 1653 49.2087 1646.39 57.114C1639.93 64.858 1636.71 75.264 1636.71 88.332C1636.71 101.561 1639.93 112.129 1646.39 120.034C1653 127.778 1661.8 131.65 1672.77 131.65C1679.86 131.65 1686.08 129.956 1691.4 126.568C1696.89 123.18 1701.16 118.259 1704.23 111.806H1755.29C1751.09 131.327 1741.74 146.815 1727.22 158.27C1712.7 169.563 1694.79 175.21 1673.49 175.21C1656.71 175.21 1641.87 171.58 1628.96 164.32C1616.06 156.899 1606.05 146.654 1598.96 133.586C1592.02 120.357 1588.55 105.272 1588.55 88.332ZM1821.55 41.384V69.214H1876V105.272H1821.55V136.006H1883.26V174H1774.12V3.38999H1883.26V41.384H1821.55Z" fill="url(#paint0_linear_216_2)"/>
<defs>
<linearGradient id="paint0_linear_216_2" x1="959" y1="58.1157" x2="958.889" y2="174" gradientUnits="userSpaceOnUse">
<stop stop-color="#00C3E6"/>
<stop offset="1" stop-color="#306CB6"/>
</linearGradient>
</defs>
</svg>
